<?xml version="1.0" encoding="UTF-8" standalone="no"?>
<svg
   xmlns:dc="http://purl.org/dc/elements/1.1/"
   xmlns:cc="http://creativecommons.org/ns#"
   xmlns:rdf="http://www.w3.org/1999/02/22-rdf-syntax-ns#"
   xmlns:svg="http://www.w3.org/2000/svg"
   xmlns="http://www.w3.org/2000/svg"
   xmlns:sodipodi="http://sodipodi.sourceforge.net/DTD/sodipodi-0.dtd"
   xmlns:inkscape="http://www.inkscape.org/namespaces/inkscape"
   version="1.0"
   width="1226.000000pt"
   height="316.000000pt"
   viewBox="0 0 1226.000000 316.000000"
   preserveAspectRatio="xMidYMid meet"
   id="svg112"
   sodipodi:docname="averx-text-logo-001.svg"
   inkscape:version="1.0.1 (c497b03c, 2020-09-10)">
  <defs
     id="defs116" />
  <sodipodi:namedview
     pagecolor="#ffffff"
     bordercolor="#666666"
     borderopacity="1"
     objecttolerance="10"
     gridtolerance="10"
     guidetolerance="10"
     inkscape:pageopacity="0"
     inkscape:pageshadow="2"
     inkscape:window-width="1440"
     inkscape:window-height="803"
     id="namedview114"
     showgrid="false"
     inkscape:zoom="0.67108483"
     inkscape:cx="817.33333"
     inkscape:cy="210.66667"
     inkscape:window-x="0"
     inkscape:window-y="23"
     inkscape:window-maximized="1"
     inkscape:current-layer="svg112" />
  <metadata
     id="metadata98">
Created by potrace 1.16, written by Peter Selinger 2001-2019
<rdf:RDF>
  <cc:Work
     rdf:about="">
    <dc:format>image/svg+xml</dc:format>
    <dc:type
       rdf:resource="http://purl.org/dc/dcmitype/StillImage" />
  </cc:Work>
</rdf:RDF>
</metadata>
  <g
     transform="translate(0.000000,316.000000) scale(0.100000,-0.100000)"
     fill="#000000"
     stroke="none"
     id="g110">
    <path
       d="M3100 2417 c0 -13 4 -27 9 -32 5 -6 30 -62 56 -125 25 -63 52 -128 60 -145 15 -34 30 -69 70 -170 27 -68 50 -124 65 -156 5 -8 20 -47 35 -85 15 -38 35 -87 45 -109 9 -22 36 -87 59 -145 24 -58 49 -118 56 -135 7 -16 20 -46 28 -65 40 -92 67 -163 67 -176 0 -8 4 -14 9 -14 5 0 13 -15 16 -33 4 -17 11 -36 15 -42 4 -5 20 -41 35 -80 25 -64 53 -130 75 -180 30 -67 70 -169 70 -179 0 -6 9 -22 20 -36 15 -19 20 -21 20 -8 0 9 6 29 14 45 15 30 35 75 61 138 9 22 21 51 27 65 6 14 16 39 23 55 35 82 74 175 87 205 6 14 16 39 23 55 7 17 20 46 28 65 9 19 23 53 32 75 9 22 21 51 27 65 6 14 16 39 23 55 35 82 74 175 87 205 6 14 16 39 23 55 7 17 20 46 28 65 9 19 23 53 32 75 9 22 21 51 27 65 6 14 16 39 23 55 7 17 20 46 28 65 16 39 27 65 52 125 9 22 23 55 31 73 8 17 20 47 28 65 13 29 21 48 58 137 5 14 16 38 24 53 8 16 14 40 14 53 l0 24 -161 0 -160 0 -15 -37 c-8 -21 -22 -54 -30 -73 -22 -50 -28 -67 -58 -145 -15 -38 -34 -83 -42 -98 -8 -16 -14 -33 -14 -39 0 -5 -6 -24 -14 -41 -7 -18 -26 -63 -41 -102 -35 -87 -53 -132 -69 -170 -8 -16 -33 -79 -56 -140 -23 -60 -48 -123 -55 -140 -7 -16 -26 -64 -43 -105 -16 -41 -36 -76 -44 -78 -12 -2 -48 59 -48 82 0 5 -6 22 -14 39 -14 34 -39 97 -63 162 -8 22 -19 48 -24 57 -5 10 -9 23 -9 29 0 6 -6 25 -14 42 -7 18 -21 52 -31 77 -10 25 -24 59 -31 77 -8 17 -14 36 -14 42 0 6 -4 19 -9 29 -5 9 -17 37 -26 62 -9 25 -23 58 -31 73 -8 16 -14 37 -14 47 0 10 -4 21 -9 25 -5 3 -13 20 -17 37 -3 18 -10 39 -14 48 -29 62 -40 89 -46 113 -3 15 -10 30 -15 33 -5 3 -9 14 -9 25 0 11 -7 31 -16 44 -16 25 -17 25 -185 25 l-169 0 0 -23z"
       id="path100" />
    <path
       d="M5455 2418 c-3 -13 -4 -457 -3 -988 l3 -965 728 0 729 0 0 155 0 155 -549 5 -548 5 0 260 0 260 410 5 410 5 3 157 3 158 -413 2 -413 3 -3 210 c-1 116 0 220 3 233 l5 22 530 0 c451 0 530 2 530 14 0 8 -4 16 -8 18 -4 2 -44 50 -87 108 -43 58 -96 126 -118 153 l-39 47 -584 0 -584 0 -5 -22z"
       id="path102" />
    <path
       d="M7682 2432 c-11 -8 -11 -10 2 -15 9 -4 16 -11 16 -17 0 -10 14 -29 90 -115 25 -28 56 -66 70 -85 14 -19 36 -47 50 -62 l25 -28 436 0 c419 -1 438 -2 459 -20 13 -11 29 -20 36 -20 7 0 21 -13 31 -30 9 -16 20 -30 24 -30 13 0 38 -106 35 -150 -4 -68 -17 -120 -29 -120 -6 0 -8 -3 -4 -6 9 -9 -34 -53 -78 -77 -81 -46 -119 -48 -625 -45 l-475 3 0 -577 0 -578 175 0 175 0 -3 410 c-2 348 0 413 12 425 11 11 40 15 113 15 86 0 100 -2 108 -19 15 -27 67 -105 75 -111 3 -3 24 -33 45 -68 21 -34 42 -62 46 -62 5 0 9 -6 9 -12 0 -11 13 -29 60 -85 5 -7 10 -16 10 -21 0 -4 9 -17 19 -29 10 -11 26 -34 35 -51 9 -18 21 -32 26 -32 6 0 10 -4 10 -10 0 -5 14 -29 30 -52 17 -24 51 -74 77 -113 25 -38 61 -88 78 -110 17 -22 34 -48 38 -58 6 -15 24 -17 192 -17 102 0 185 2 185 5 0 12 -53 80 -62 77 -5 -1 -7 2 -3 8 3 5 1 10 -4 10 -6 0 -10 3 -9 8 4 10 -28 53 -34 46 -3 -3 -5 3 -5 13 1 9 -5 18 -13 18 -9 0 -14 8 -12 18 2 9 -2 17 -8 17 -5 0 -9 6 -8 13 2 6 -3 11 -10 9 -8 -1 -11 2 -7 8 3 5 1 10 -4 10 -6 0 -10 3 -9 8 4 13 -23 53 -32 47 -6 -3 -7 0 -4 8 3 9 -4 21 -15 29 -12 8 -18 18 -14 21 3 4 1 7 -5 7 -7 0 -11 6 -10 12 2 7 -3 12 -10 10 -8 -1 -11 1 -9 5 3 5 -1 19 -9 33 -7 14 -13 21 -14 16 0 -5 -6 -3 -14 4 -8 6 -13 17 -10 25 3 7 -4 19 -15 27 -12 8 -18 18 -14 21 3 4 1 7 -5 7 -7 0 -11 6 -10 12 2 7 -3 12 -10 10 -6 -1 -11 1 -11 5 3 21 -2 33 -13 27 -7 -4 -8 -3 -4 5 9 14 -12 43 -25 35 -5 -3 -6 1 -3 9 3 9 -4 21 -15 29 -12 8 -18 18 -14 21 3 4 1 7 -5 7 -7 0 -11 6 -10 13 2 6 -2 11 -9 10 -7 -2 -10 3 -7 11 3 8 -5 21 -18 30 -13 9 -22 20 -20 24 1 4 -3 14 -10 23 -7 8 -14 20 -15 26 -3 12 87 26 111 17 9 -3 16 -1 16 5 0 6 3 10 8 10 4 -1 9 0 12 1 3 1 14 3 25 5 11 2 29 6 40 9 11 2 24 5 28 5 5 1 5 6 1 13 -4 6 -3 8 4 4 14 -9 63 14 55 27 -3 6 -1 7 5 3 7 -4 24 5 39 21 14 15 23 21 18 13 -5 -8 4 -4 18 9 15 13 24 28 20 34 -3 6 -1 7 5 3 13 -8 54 43 45 57 -3 5 -1 7 5 3 13 -8 56 60 46 75 -4 8 -3 9 4 5 14 -8 36 40 28 61 -3 8 -1 11 4 8 9 -6 12 -2 14 28 1 6 5 15 10 19 12 8 14 242 3 281 -4 15 -12 25 -17 22 -6 -4 -7 1 -3 11 3 10 2 15 -3 12 -5 -3 -10 8 -10 25 -1 17 -9 36 -20 44 -11 8 -18 16 -16 18 6 13 1 25 -10 19 -7 -4 -8 -3 -4 4 8 14 -18 55 -28 45 -4 -4 -4 0 0 10 4 12 -1 19 -17 26 -13 4 -23 12 -22 17 0 5 -3 8 -9 6 -5 -1 -7 2 -3 7 7 13 -123 111 -147 111 -9 0 -20 5 -23 11 -4 6 -14 8 -22 5 -9 -4 -11 -2 -7 6 5 7 2 9 -8 5 -9 -3 -21 0 -27 6 -15 15 -1158 23 -1179 9z"
       id="path104" />
    <path
       d="M10020 2430 c8 -5 12 -10 7 -10 -8 0 64 -113 76 -118 4 -2 7 -8 7 -13 0 -6 17 -36 38 -67 20 -31 43 -70 51 -85 8 -15 18 -27 22 -27 4 0 10 -11 13 -25 4 -14 11 -25 16 -25 6 0 10 -6 10 -12 1 -11 63 -114 87 -143 5 -5 16 -26 26 -46 9 -20 23 -42 32 -49 8 -7 15 -19 15 -26 0 -8 4 -14 9 -14 5 0 14 -13 20 -30 5 -16 15 -30 20 -30 6 0 11 -6 11 -13 0 -11 52 -98 101 -169 11 -15 19 -31 19 -37 0 -5 5 -11 11 -13 8 -3 4 -19 -12 -48 -13 -25 -26 -47 -29 -50 -15 -15 -48 -68 -54 -88 -4 -12 -11 -22 -15 -22 -5 0 -14 -13 -21 -30 -7 -16 -16 -30 -21 -30 -4 0 -11 -10 -15 -22 -4 -13 -9 -25 -13 -28 -13 -10 -51 -70 -51 -79 0 -5 -6 -16 -13 -23 -19 -20 -117 -177 -117 -188 0 -6 -4 -10 -10 -10 -5 0 -10 -5 -10 -11 0 -6 -11 -25 -25 -43 -14 -18 -25 -38 -25 -44 0 -6 -3 -12 -8 -14 -10 -4 -82 -114 -82 -126 0 -5 -9 -17 -20 -27 -11 -10 -20 -22 -20 -26 0 -8 -41 -73 -60 -96 -9 -10 27 -13 174 -13 166 0 186 2 195 18 5 9 9 21 9 25 0 5 4 12 8 15 4 4 4 1 0 -5 -4 -7 -5 -13 -2 -13 3 0 10 10 17 21 9 17 8 20 -3 14 -7 -3 -5 0 4 8 10 8 14 18 10 22 -4 5 -2 5 5 1 14 -8 46 47 35 59 -4 5 -1 5 6 1 11 -7 17 6 12 29 -1 6 2 7 6 3 11 -11 36 30 28 45 -4 6 -4 9 1 5 9 -8 42 31 37 44 -1 5 3 8 10 8 6 0 8 3 5 7 -4 3 2 13 14 21 12 8 18 20 15 29 -4 9 1 17 14 20 11 3 20 12 20 20 0 8 7 21 15 30 8 8 12 19 9 25 -4 7 -2 8 4 4 11 -6 16 6 13 26 0 5 5 7 12 5 6 -1 11 4 10 11 -2 6 2 12 8 12 6 0 9 6 6 14 -3 8 2 20 11 28 15 12 16 11 3 -4 -7 -10 -11 -18 -7 -18 12 0 56 81 50 92 -4 7 -3 8 4 4 9 -6 40 33 33 42 -2 2 1 7 5 10 4 4 4 1 -1 -7 -5 -9 -4 -12 3 -7 7 4 12 13 12 20 0 13 31 46 42 46 4 0 19 -20 35 -45 15 -25 31 -45 34 -45 4 0 10 -11 13 -25 4 -14 11 -25 16 -25 6 0 10 -4 10 -10 0 -5 20 -41 45 -80 25 -39 45 -74 45 -79 0 -4 9 -16 20 -26 11 -10 20 -24 20 -32 0 -7 5 -13 10 -13 6 0 10 -7 10 -15 0 -8 8 -23 18 -33 10 -10 21 -26 25 -35 3 -9 22 -42 42 -72 19 -31 35 -58 35 -60 0 -3 16 -28 35 -55 19 -27 35 -54 35 -60 0 -17 42 -21 223 -18 l179 3 -25 27 c-14 15 -22 29 -19 32 3 3 -1 6 -8 6 -7 0 -10 3 -7 6 4 4 -2 19 -12 33 -10 14 -21 34 -24 44 -4 9 -12 16 -19 15 -7 -2 -12 5 -10 14 2 10 -2 18 -8 18 -5 0 -9 6 -8 13 2 6 -2 11 -7 10 -6 -1 -12 8 -12 20 -1 12 -15 33 -30 46 -15 13 -22 20 -15 16 21 -11 -4 32 -26 44 -9 6 -13 11 -8 11 6 0 1 7 -10 16 -10 8 -12 12 -4 8 13 -7 13 -6 0 12 -8 10 -19 22 -23 25 -5 3 -8 9 -8 13 3 20 0 26 -11 20 -7 -4 -8 -3 -4 4 4 7 -5 24 -21 39 -15 16 -26 34 -25 41 2 6 -2 12 -8 12 -5 0 -9 6 -8 13 2 6 -3 11 -10 9 -6 -1 -11 1 -11 5 3 20 -2 34 -11 28 -5 -3 -7 0 -4 9 3 9 -3 19 -16 26 -11 6 -18 15 -15 20 8 13 -20 52 -29 42 -4 -4 -7 -2 -6 3 5 22 -1 36 -12 29 -6 -4 -8 -3 -4 4 3 6 -1 18 -10 26 -8 9 -12 16 -7 16 4 0 0 7 -10 14 -10 8 -19 18 -20 23 -1 4 -5 7 -9 6 -4 -2 -5 4 -2 12 7 17 -20 48 -31 37 -5 -4 -5 -1 -1 5 8 14 -11 56 -22 49 -5 -3 -9 5 -9 17 -1 12 -12 30 -24 40 -28 22 -32 75 -7 88 17 9 50 61 47 75 0 3 3 9 7 12 4 4 4 1 0 -5 -4 -7 -5 -13 -2 -13 3 0 10 10 17 21 9 17 8 20 -3 14 -7 -5 -1 3 15 18 28 27 36 44 15 31 -7 -4 2 6 20 23 30 29 37 44 32 68 -1 6 2 7 6 3 11 -11 56 60 48 75 -4 6 -4 9 1 5 8 -8 42 30 47 52 2 7 11 22 21 32 10 10 15 24 11 31 -4 7 -4 9 1 5 11 -11 38 29 29 44 -4 7 -3 8 4 4 11 -6 16 6 13 26 0 5 3 7 8 5 9 -2 61 67 61 82 0 5 7 14 15 21 9 7 13 20 10 29 -3 8 -3 12 1 9 7 -8 41 31 46 53 2 8 10 20 18 27 13 12 13 13 0 6 -8 -4 0 8 18 26 18 19 30 40 28 46 -3 7 6 20 20 29 14 9 22 20 19 25 -4 6 -1 10 4 10 6 0 11 4 11 8 0 5 -82 10 -182 11 -180 2 -183 1 -201 -21 -27 -34 -96 -142 -97 -150 0 -5 -22 -39 -49 -77 -27 -38 -48 -71 -46 -73 2 -2 -7 -17 -20 -32 -14 -16 -25 -35 -25 -43 0 -7 -5 -13 -10 -13 -6 0 -16 -12 -23 -27 -6 -16 -14 -30 -17 -33 -15 -15 -60 -88 -60 -98 0 -7 -4 -12 -8 -12 -4 0 -21 -22 -37 -50 -16 -27 -33 -50 -37 -50 -4 0 -13 9 -21 20 -8 11 -17 17 -21 12 -4 -4 -7 -2 -6 3 5 22 -1 36 -12 29 -6 -4 -8 -3 -4 4 3 6 0 16 -7 24 -7 7 -13 15 -13 18 1 13 -32 49 -39 42 -5 -4 -5 -1 -1 5 8 14 -17 57 -26 47 -3 -3 -5 3 -4 13 0 10 -4 17 -10 16 -6 -1 -11 4 -11 11 0 21 -44 87 -54 81 -5 -4 -6 1 -3 9 3 8 -3 19 -15 25 -11 6 -18 17 -15 25 3 8 -3 20 -13 27 -10 8 -19 21 -21 29 -2 8 -8 20 -15 25 -7 6 -13 17 -15 25 -2 8 -13 23 -25 34 -12 10 -21 23 -19 28 4 14 -18 49 -27 43 -5 -2 -8 3 -7 13 0 9 -5 16 -12 14 -8 -1 -11 2 -8 7 4 5 0 16 -8 24 -8 8 -12 17 -9 20 3 4 -84 6 -193 6 -128 0 -193 -3 -184 -9z"
       id="path106" />
    <path
       d="M1436 2376 c-21 -45 -168 -351 -276 -571 -37 -77 -98 -203 -135 -280 -37 -77 -107 -222 -156 -322 -49 -101 -89 -187 -89 -193 0 -5 -4 -10 -10 -10 -5 0 -10 -6 -10 -13 0 -8 -27 -67 -59 -133 -97 -196 -181 -373 -181 -384 0 -6 70 -10 193 -10 l192 1 19 42 c10 23 31 69 46 102 16 33 43 92 60 130 18 39 47 102 66 141 19 39 34 74 34 77 0 4 21 51 46 104 57 123 83 180 124 268 17 39 43 95 57 125 14 30 30 66 36 80 6 14 22 44 35 68 31 54 34 51 92 -83 24 -55 53 -123 66 -151 13 -27 32 -73 43 -101 11 -28 29 -70 40 -94 11 -24 32 -73 46 -109 42 -101 65 -153 79 -180 8 -14 17 -42 21 -62 l7 -38 -361 0 c-198 0 -361 -2 -361 -5 0 -4 11 -33 31 -80 4 -11 22 -58 39 -105 17 -47 36 -95 42 -107 l11 -23 584 0 c321 0 583 2 583 4 0 2 -11 26 -24 53 -13 26 -44 91 -69 143 -24 52 -68 145 -96 205 -29 61 -59 122 -67 137 -8 14 -14 33 -14 41 0 9 -3 17 -7 19 -5 2 -15 19 -24 38 -49 104 -83 176 -132 280 -30 63 -72 153 -95 200 -22 47 -63 135 -92 195 -28 61 -60 127 -71 148 -10 21 -19 44 -19 52 0 8 -4 15 -9 15 -5 0 -12 14 -16 30 -4 17 -11 30 -16 30 -5 0 -9 9 -9 19 0 11 -7 26 -15 35 -8 8 -15 20 -15 26 0 7 -6 24 -14 38 -8 15 -37 75 -65 134 -28 59 -55 109 -59 111 -4 3 -16 -14 -26 -37z"
       id="path108" />
  </g>
  <path
     style="fill:#ff0000;stroke-width:1.49012"
     d="m 74.133698,358.6465 c -1.844029,-0.36563 -3.35278,-0.99529 -3.35278,-1.39923 0,-0.40396 7.040838,-15.37168 15.646308,-33.26162 8.605469,-17.88994 15.646304,-33.21498 15.646304,-34.05565 0,-0.84068 0.50292,-1.75201 1.1176,-2.02521 0.61467,-0.27319 8.37157,-15.58422 17.23754,-34.02451 51.75542,-107.64584 73.38224,-151.99156 74.12455,-151.9921 1.0528,-7.6e-4 19.17927,37.32866 52.09721,107.28836 14.07546,29.91425 27.77224,58.74816 30.4373,64.07536 12.65156,25.28932 39.45571,84.05186 38.68967,84.81907 -0.47397,0.47471 -34.93329,1.06456 -76.57625,1.3108 l -75.71451,0.44771 -4.09084,-10.87858 c -2.24997,-5.98322 -5.6743,-14.84988 -7.60963,-19.70371 -1.93532,-4.85381 -3.51877,-9.38007 -3.51877,-10.05834 0,-0.67826 21.54161,-1.23321 47.87025,-1.23321 h 47.87025 l -0.84956,-4.24786 c -0.85587,-4.27928 -38.66009,-93.61976 -44.25871,-104.59396 -1.65485,-3.24378 -3.88208,-5.89778 -4.9494,-5.89778 -2.28963,0 -7.13069,9.5904 -28.5831,56.62474 -8.78445,19.25986 -22.59147,49.43488 -30.68227,67.0556 l -14.71053,32.03768 -21.243928,0.18861 c -11.684158,0.10374 -22.752675,-0.11054 -24.596704,-0.47617 z"
     id="path118"
     transform="scale(0.75)" />
  <path
     style="fill:#ff0000;stroke-width:1.49012"
     d="m 518.09397,350.73838 c -0.87053,-2.04892 -7.056,-17.13644 -13.74549,-33.52781 -6.6895,-16.39137 -13.34167,-32.48471 -14.78261,-35.76299 -1.44095,-3.27827 -7.68932,-18.36578 -13.88527,-33.5278 -18.68128,-45.71466 -39.5486,-96.15804 -50.54741,-122.19021 -5.71352,-13.52289 -10.7448,-25.44314 -11.1806,-26.489469 -1.26736,-3.042787 44.24968,-1.894539 45.87769,1.157349 0.65579,1.22935 3.99735,9.6113 7.42568,18.62655 3.42834,9.01526 6.80143,17.73249 7.49575,19.37162 0.69433,1.63914 2.20432,5.66248 3.35555,8.94075 2.14589,6.11073 8.17766,21.97403 21.81396,57.3698 4.26249,11.06417 9.74103,25.48113 12.17451,32.03768 2.43348,6.55655 5.41912,12.92683 6.63476,14.15618 1.96253,1.98467 2.49454,1.85628 4.74687,-1.14553 1.39514,-1.85941 15.88295,-36.89596 32.19512,-77.85902 l 29.65851,-74.478282 h 20.80232 20.80234 l -0.72401,4.097842 c -0.54794,3.10132 -86.26132,206.85932 -103.58527,246.24309 -2.91375,6.62403 -2.96886,6.66027 -4.5324,2.98025 z"
     id="path120"
     transform="scale(0.75)" />
  <path
     style="fill:#ff0000;stroke-width:1.49012"
     d="M 727.92586,227.8031 V 97.417198 h 78.01656 78.01656 l 15.83236,20.393962 c 8.7078,11.21668 15.45473,20.7721 14.99318,21.23427 -0.46156,0.46218 -32.13231,1.1756 -70.37946,1.58538 l -69.54028,0.74506 -0.40216,31.66515 -0.40217,31.66515 h 55.16424 55.16425 v 19.88339 19.88338 l -23.46946,0.9734 c -12.90821,0.53536 -37.71878,0.97563 -55.13461,0.97835 l -31.66515,0.005 v 35.76299 35.76299 h 73.0161 73.01611 v 20.11668 20.11668 h -96.11304 -96.11303 z"
     id="path122"
     transform="scale(0.75)" />
</svg>
