<?xml version="1.0" encoding="UTF-8" standalone="no"?>
<svg
   xmlns:dc="http://purl.org/dc/elements/1.1/"
   xmlns:cc="http://creativecommons.org/ns#"
   xmlns:rdf="http://www.w3.org/1999/02/22-rdf-syntax-ns#"
   xmlns:svg="http://www.w3.org/2000/svg"
   xmlns="http://www.w3.org/2000/svg"
   xmlns:sodipodi="http://sodipodi.sourceforge.net/DTD/sodipodi-0.dtd"
   xmlns:inkscape="http://www.inkscape.org/namespaces/inkscape"
   id="Layer_1"
   data-name="Layer 1"
   viewBox="0 0 1146.67 1094.39"
   version="1.1"
   sodipodi:docname="averx-logo-1.svg"
   inkscape:version="1.0.1 (c497b03c, 2020-09-10)">
  <metadata
     id="metadata144">
    <rdf:RDF>
      <cc:Work
         rdf:about="">
        <dc:format>image/svg+xml</dc:format>
        <dc:type
           rdf:resource="http://purl.org/dc/dcmitype/StillImage" />
      </cc:Work>
    </rdf:RDF>
  </metadata>
  <sodipodi:namedview
     pagecolor="#ffffff"
     bordercolor="#666666"
     borderopacity="1"
     objecttolerance="10"
     gridtolerance="10"
     guidetolerance="10"
     inkscape:pageopacity="0"
     inkscape:pageshadow="2"
     inkscape:window-width="1440"
     inkscape:window-height="803"
     id="namedview142"
     showgrid="false"
     inkscape:zoom="0.54185437"
     inkscape:cx="377.71048"
     inkscape:cy="458.61031"
     inkscape:window-x="0"
     inkscape:window-y="23"
     inkscape:window-maximized="1"
     inkscape:current-layer="Layer_1" />
  <defs
     id="defs109">
    <style
       id="style104">.cls-1,.cls-5{fill:none;}.cls-2{fill:#e09451;}.cls-3{fill:#d0e9eb;}.cls-4,.cls-7{fill:#fff;}.cls-4,.cls-5{stroke:#000;stroke-miterlimit:10;stroke-width:2px;}.cls-6{clip-path:url(#clip-path);}.cls-7{opacity:0.1;}.cls-8{fill:#d4a18a;}.cls-9{fill:#107c71;}.cls-10{fill:#16a596;}</style>
    <clipPath
       id="clip-path"
       transform="translate(-6687.19 -6542.27)">
      <path
         class="cls-1"
         d="M7308,6941.31l74.7,129.38,105.41,182.58,66.76,115.6c0,.05.06.05.06.05l11.32,19.67,2.83,4.91c12.07,20.91-3,47.05-27.18,47.05H6903.64a31.38,31.38,0,0,1-27.18-47.05l2.83-4.91,10.76-18.7.05-.05,67.69-117.19L7063.86,7069l73.69-127.64,44.6-77.27a31.37,31.37,0,0,0,4.2-15.79q-.12-36.93-.25-73.85a31.38,31.38,0,0,1,31.51-31.48l15,.06a31.39,31.39,0,0,1,31.25,31.15q.27,37.54.55,75.1a31.38,31.38,0,0,0,3.49,14.14Z"
         id="path106" />
    </clipPath>
  </defs>
  <title
     id="title111">logo averx final-01</title>
  <polygon
     class="cls-2"
     points="1021.94 1094.39 851.46 1094.39 802.32 1009.23 793.91 994.68 277.35 994.68 266.95 1012.66 219.76 1094.39 49.33 1094.39 59.73 1076.36 106.88 994.68 149.51 920.84 921.76 920.84 964.39 994.68 1008.77 1071.54 1021.94 1094.39"
     id="polygon113" />
  <circle
     class="cls-3"
     cx="540.5"
     cy="150.25"
     r="30.72"
     id="circle115" />
  <circle
     class="cls-3"
     cx="612.75"
     cy="57.2"
     r="57.2"
     id="circle117" />
  <circle
     class="cls-4"
     cx="595.57"
     cy="547.46"
     r="17.16"
     id="circle119" />
  <circle
     class="cls-5"
     cx="499.51"
     cy="412.86"
     r="19.3"
     id="circle121" />
  <path
     class="cls-2"
     d="M7542,7441.22h-638.3a31.37,31.37,0,0,1-27.17-47.05l2.82-4.91,10.76-18.7.06-.05,67.69-117.18,106.06-183.7L7137.57,6942l44.62-77.26a31.53,31.53,0,0,0,4.19-15.8q-.1-36.93-.24-73.84a31.38,31.38,0,0,1,31.5-31.49l15,.07a31.38,31.38,0,0,1,31.24,31.14q.09,12.39.18,24.78h-26.19v6.24h26.24q.14,17.18.25,34.34h-21.59v7h21.64c0,.91,0,1.81,0,2.71a31.55,31.55,0,0,0,3.49,14.15l8.82,17.1h-23.19v7h26.81l27.74,53.81,74.71,129.39L7488.17,7254l66.76,115.59c0,.05.06.05.06.05l11.32,19.67,2.83,4.91A31.37,31.37,0,0,1,7542,7441.22Z"
     transform="translate(-6687.19 -6542.27)"
     id="path123" />
  <g
     class="cls-6"
     clip-path="url(#clip-path)"
     id="g127">
    <rect
       class="cls-7"
       x="535.6"
       y="46.72"
       width="611.07"
       height="852.59"
       id="rect125" />
  </g>
  <path
     class="cls-3"
     d="M7041.45,7160.68a21.63,21.63,0,0,0,1.55-3.52c3.71-10.9,8.8-15.15,13.1-16.9,12.09-4.91,23.35,7.82,35.35,2,7.35-3.59,6.49-10,12.43-14.48,6.64-5,20.23-6.45,51,10.51a20.18,20.18,0,0,0,7.86,2.46,190.6,190.6,0,0,0,41.21-.46c23.26-2.8,28.81-12.56,44.37-10.24,18.05,2.7,20.81,15.31,40.68,20.41,12.8,3.3,24.75,1.43,33.7-1.2a20.27,20.27,0,0,0,4.48-1.93,20.74,20.74,0,0,0,2-1.33c1.2-.92,13-9.13,26.68-11.95,3.93-.81,24.48-4.57,39.73,7.35a30.92,30.92,0,0,1,7.15,7.46l127.31,231.43a19.88,19.88,0,0,1-17.55,29.46l-575.73-3.84a19.88,19.88,0,0,1-17.17-29.66Q6980.55,7268.46,7041.45,7160.68Z"
     transform="translate(-6687.19 -6542.27)"
     id="path129" />
  <circle
     class="cls-3"
     cx="612.73"
     cy="547.46"
     r="15.36"
     id="circle131" />
  <rect
     class="cls-8"
     x="472.33"
     y="194.94"
     width="126.62"
     height="27.11"
     rx="13.55"
     id="rect133" />
  <path
     class="cls-9"
     d="M6893.1,7348.11l-.05.05q-12.45,9.45-24.23,18.7c-22.91,17.89-44,35.26-63.13,52q-12.84,11.15-24.44,21.88c-29.57,27.36-53,52.27-69,73.84-22,29.57-30.29,52.78-21.83,67.13,7.68,13,28.38,17.52,59.44,14.55,47.8-4.61,120.16-27.06,207.21-63.69q20.22-8.46,41.41-18c47.14-21.11,97.82-45.91,150.65-73.84q20.13-10.6,40.63-21.88,18.6-10.14,37.56-20.9,26.67-15.08,53.8-31.06c.11,0,.16-.1.26-.15q44.73-26.37,86.7-53c43.71-27.62,84.91-55.19,123-82.19,178-125.75,287.92-237.71,264-278.29S7581,6954.58,7385.74,7049c99.34-30.76,246.85-71.92,260.19-43.4,35.52,76-893.29,621.4-938.19,558.67C6696.75,7548.88,6735.65,7492.89,6893.1,7348.11Z"
     transform="translate(-6687.19 -6542.27)"
     id="path135" />
  <path
     class="cls-10"
     d="M7557.91,7347.14a0,0,0,0,0,.05,0q13.06,10,25.36,19.67c22.75,18,43.66,35.36,62.46,52,8.46,7.43,16.45,14.76,24,21.88,29.31,27.47,52.11,52.47,67.22,73.84,19.22,27.16,26,48.53,18.09,62-7.43,12.56-26.95,17.17-56.21,14.86-47-3.84-119.24-25.82-206.45-62.31q-16.61-6.92-33.87-14.55c-47.5-21-98.79-45.71-152.44-73.84q-20.3-10.6-41-21.88-18.77-10.21-37.82-20.9-26.82-15.08-54.16-31.06c-3-1.74-5.95-3.48-9-5.27q-41.28-24.37-80.19-48.84-38.2-24.06-73.74-47.86-25.52-17.13-49.5-34c-181.7-127.59-294.58-241.75-270.34-282.8s177.75,2.31,376.41,99.1c-195.44-67.48-288.43-85.61-298.92-64.27-36.33,73.9,902.15,649.23,954.38,579.79C7738.14,7541.71,7672.64,7461.71,7557.91,7347.14Z"
     transform="translate(-6687.19 -6542.27)"
     id="path137" />
  <circle
     class="cls-3"
     cx="499.51"
     cy="432.16"
     r="15.36"
     id="circle139" />
  <path
     style="fill:#ff0000;stroke:none;stroke-width:1.84551"
     d="m 322.34505,653.03349 c -4.06013,-3.05931 -8.46222,-6.1733 -9.78242,-6.91997 -1.74343,-0.98606 22.96663,-45.26534 90.28786,-161.79169 50.97852,-88.23873 93.75393,-163.34075 95.05646,-166.89336 1.66973,-4.55417 2.39212,-19.38703 2.44923,-50.29027 l 0.081,-43.83097 h 36.71284 c 31.77483,0 36.8635,0.39265 37.83304,2.91922 0.61613,1.60556 1.12021,9.0799 1.12021,16.60962 v 13.69042 h -12.9186 c -11.68825,0 -12.9186,0.35153 -12.9186,3.69103 0,3.3395 1.23035,3.69103 12.9186,3.69103 h 12.9186 v 16.60963 16.60963 h -11.07308 c -10.58095,0 -11.07309,0.20505 -11.07309,4.61378 0,4.39904 0.50584,4.61379 10.8677,4.61379 h 10.8677 l 1.17767,6.2776 c 0.64774,3.45268 3.23161,10.14048 5.74194,14.86177 2.51034,4.72129 4.56425,8.95546 4.56425,9.40927 0,0.45381 -4.98289,0.8251 -11.07309,0.8251 -10.58094,0 -11.07308,0.20506 -11.07308,4.61379 0,4.50645 0.31827,4.61378 13.68098,4.61378 h 13.68098 l 14.678,28.1441 c 8.07289,15.47925 45.51674,81.5478 83.20852,146.81899 37.69179,65.27119 68.53052,119.26405 68.53052,119.98414 0,1.53755 -13.0842,9.86733 -15.4811,9.85574 -0.90186,-0.004 -8.04507,-11.49122 -15.87382,-25.52634 -13.61836,-24.41455 -14.66506,-25.74537 -24.19746,-30.7652 -9.16073,-4.82412 -11.23411,-5.18863 -25.73725,-4.52469 -14.4152,0.6599 -17.00244,1.39638 -30.03731,8.55035 -23.50552,12.90057 -42.54728,12.62586 -62.47983,-0.90139 -19.73261,-13.39157 -26.76493,-14.38291 -47.7946,-6.73759 -12.3662,4.49573 -16.22006,4.9904 -39.53891,5.07517 l -25.8372,0.0939 -15.24436,-7.05598 c -9.09667,-4.21048 -19.3711,-7.4819 -25.47741,-8.11212 l -10.23305,-1.05615 -9.00393,9.74278 c -8.9734,9.70975 -9.03406,9.73893 -17.89217,8.60687 -4.88854,-0.62474 -11.5989,-1.66213 -14.9119,-2.30529 -9.9941,-1.94017 -16.00577,1.94171 -22.66188,14.63325 -7.18243,13.69514 -26.03842,47.42258 -26.41322,47.24497 -0.14667,-0.0695 -3.58861,-2.62946 -7.64874,-5.68875 z m 300.28491,-92.66761 c 4.36518,-3.31644 7.22373,-11.60991 5.8661,-17.01916 -2.40528,-9.58337 -17.32464,-15.26615 -24.87001,-9.47301 -12.90691,9.90962 -7.05076,29.08265 8.84225,28.94947 3.85251,-0.0323 8.42525,-1.13807 10.16166,-2.4573 z M 511.97165,442.77512 c 8.34687,-10.21275 0.70375,-26.42709 -12.45722,-26.42709 -16.60584,0 -21.94317,21.74361 -7.38206,30.07356 5.2382,2.9966 16.03123,1.01284 19.83928,-3.64647 z"
     id="path146" />
  <path
     style="fill:#ff0000;stroke-width:1.84551"
     d="m 697.44819,884.19278 c -13.95541,-7.88461 -25.95694,-14.91913 -26.67007,-15.63225 -0.71313,-0.71313 35.34886,-1.20496 80.13774,-1.09296 55.31629,0.13834 82.63262,-0.43765 85.1705,-1.79589 6.02652,-3.22529 9.46413,-9.64225 9.43225,-17.6071 -0.0247,-6.16139 -6.1164,-18.48167 -35.61304,-72.0258 l -35.58328,-64.593 8.3858,-5.99793 c 4.61219,-3.29885 8.8037,-5.9797 9.31446,-5.95744 0.51076,0.0223 21.19668,35.1101 45.96872,77.97298 41.76355,72.26317 45.10196,78.69696 45.89083,88.44094 1.01994,12.59821 -3.22399,21.0088 -13.9737,27.69295 -6.78452,4.21863 -7.27061,4.2476 -76.95719,4.5883 l -70.12955,0.34286 z"
     id="path148" />
  <path
     style="fill:#ff0000;stroke-width:1.84551"
     d="m 208.68641,897.00169 c -18.07226,-5.47683 -27.39026,-26.65843 -18.952,-43.08158 3.13386,-6.09935 83.93354,-146.57778 88.61485,-154.0659 2.57832,-4.12423 2.74276,-4.14387 8.11655,-0.9695 3.0167,1.78201 7.63545,4.9548 10.26389,7.05064 l 4.77898,3.81063 -36.18105,63.89479 c -38.04038,67.17831 -39.32775,70.32216 -33.10777,80.85174 5.67479,9.60665 7.02487,9.77191 87.0821,10.6591 l 74.46852,0.82525 -30.17617,16.36526 -30.17617,16.36525 -59.97922,-0.12958 c -32.98857,-0.0712 -62.1272,-0.7805 -64.75251,-1.5761 z"
     id="path150" />
  <path
     style="fill:#ff0000;stroke-width:1.84551"
     d="m 494.64912,881.92325 31.12223,-16.82028 16.80948,1.31498 c 16.50253,1.29097 17.3159,1.58517 44.54386,16.11165 15.25391,8.13816 28.08042,15.12048 28.50335,15.51627 0.42293,0.39579 -33.62681,0.71467 -75.66609,0.70864 l -76.43505,-0.011 z"
     id="path152" />
  <path
     style="fill:#ff0000;stroke-width:1.84551"
     d="m 55.160102,1086.5466 c 18.112,-32.1315 18.530905,-32.69 25.347905,-33.7928 17.632662,-2.8527 63.497093,-15.1593 92.833523,-24.9096 60.62302,-20.1488 142.09622,-54.6255 214.03849,-90.57374 l 32.73844,-16.35881 H 539.8656 659.61274 l 29.29758,14.03783 c 116.81832,55.97313 202.12789,89.30782 269.21442,105.19562 15.22549,3.6057 29.66601,7.1125 32.09002,7.7928 3.16962,0.8896 7.96369,7.3512 17.07104,23.0088 6.965,11.9745 12.6637,22.1479 12.6637,22.6076 0,0.4596 -37.66069,0.8357 -83.69036,0.8357 h -83.69035 l -28.42465,-49.3675 -28.42466,-49.36752 H 535.67794 275.63641 l -28.50463,49.36752 -28.50464,49.3675 H 134.68301 50.73888 Z"
     id="path154" />
  <path
     style="fill:#ff0000;stroke-width:1.84551"
     d="M 947.05165,1006.8554 C 910.87501,992.84666 874.3159,976.15706 819.71116,948.72323 l -53.51991,-26.88882 75.6643,-0.48247 c 41.61536,-0.26535 76.57714,-0.13217 77.69285,0.29596 1.81637,0.69701 54.26321,90.0045 54.26321,92.4004 0,2.2669 -7.62004,0.2187 -26.75996,-7.1929 z"
     id="path156" />
  <path
     style="fill:#ff0000;stroke-width:1.84551"
     d="m 100.92149,1008.0973 c 0.021,-0.7531 11.11134,-20.4703 24.64523,-43.81606 l 24.60708,-42.44683 69.93737,-0.43258 69.93738,-0.43257 -16.60963,9.13982 c -43.2444,23.79622 -172.6373,82.28952 -172.51743,77.98822 z"
     id="path158" />
  <path
     style="fill:#00ff00;stroke-width:1.84551"
     d="M 995.03503,1046.1238 C 831.23932,1021.0027 468.72023,834.6243 217.15073,646.19782 74.130753,539.07533 -8.9485333,448.78268 1.9713233,412.33544 4.4456756,404.07679 12.515859,396.745 22.044905,394.09852 c 10.149124,-2.81868 41.885548,-2.33223 60.602917,0.92893 33.491958,5.83535 83.469558,20.65454 134.039468,39.74492 45.51273,17.18127 139.35713,58.58569 127.80393,56.38747 -2.03006,-0.38626 -21.13114,-6.2916 -42.44683,-13.12298 -125.69514,-40.28352 -199.51844,-54.62452 -218.195417,-42.38689 -6.13229,4.01803 -5.540625,14.04425 1.572742,26.65137 12.438934,22.04569 72.019355,74.92477 142.802105,126.74035 167.57438,122.67063 416.58727,274.82224 597.29684,364.95972 120.88039,60.29489 191.60494,83.49539 208.34504,68.34579 17.2997,-15.656 -24.9626,-77.16759 -120.90332,-175.97133 -12.2094,-12.57377 -21.23938,-22.53954 -20.06661,-22.14617 4.06696,1.36413 57.05013,45.69792 81.8386,68.47864 59.82233,54.97706 94.94703,102.20493 94.89133,127.58896 -0.035,15.8879 -7.6336,23.0838 -28.5685,27.054 -12.5696,2.3838 -24.5612,2.064 -46.02217,-1.2275 z"
     id="path160" />
  <path
     style="fill:#00ff00;stroke-width:1.84551"
     d="m 564.10743,807.18126 c -15.22549,-9.19199 -28.3504,-17.34669 -29.16646,-18.12155 -0.81605,-0.77487 4.58208,-4.98601 11.99585,-9.35807 130.69631,-77.07462 281.83896,-179.25912 351.41176,-237.58243 26.56683,-22.27114 52.55813,-49.34184 57.82958,-60.2312 4.46648,-9.22652 4.89069,-18.22443 1.04069,-22.07443 -14.84432,-14.84431 -85.95494,-4.54929 -202.82749,29.36429 -19.17785,5.56495 -35.10797,9.87893 -35.40027,9.58663 -0.78342,-0.78341 50.91832,-24.14474 85.95596,-38.83904 84.0964,-35.26885 153.12111,-56.55082 201.86575,-62.24003 29.9974,-3.50112 50.1011,1.10009 59.1665,13.54165 9.2919,12.75236 0.1628,38.74588 -25.1651,71.65359 -14.8754,19.32709 -61.08761,66.19239 -89.14876,90.40866 -73.56056,63.48142 -182.98755,142.28028 -289.74575,208.64721 -41.56929,25.84182 -68.47242,42.1168 -69.46309,42.02152 -0.36655,-0.0353 -13.12368,-7.58481 -28.34917,-16.7768 z"
     id="path162" />
  <path
     style="fill:#00ff00;stroke-width:1.84551"
     d="m 30.989703,1052.7112 c -12.454185,-1.8553 -20.34082,-5.9278 -25.8802053,-13.364 -16.5403417,-22.2043 22.3163593,-79.89538 101.2394323,-150.31166 28.29506,-25.24524 62.66622,-53.9403 64.61012,-53.9403 0.6746,0 -16.94413,17.79677 -39.15274,39.54837 -78.216706,76.60717 -113.048367,120.11101 -113.048367,141.19449 0,5.6561 0.92415,7.8643 3.974348,9.4967 6.162665,3.2982 31.662923,0.9427 50.468325,-4.6618 68.145944,-20.3094 213.374194,-91.14098 371.199374,-181.0437 17.11751,-9.75073 31.69931,-17.87414 32.404,-18.05201 1.5783,-0.39839 60.44495,32.53461 60.44965,33.8186 0.0126,3.4542 -152.32904,82.10812 -210.2948,108.57508 -138.50881,63.24263 -247.587507,95.94763 -295.969137,88.74023 z"
     id="path164" />
  <path
     style="fill:#000080;stroke-width:1.84551"
     d="m 490.53574,442.78949 c -8.00912,-6.29997 -6.49208,-18.27497 2.93255,-23.14863 14.24847,-7.36817 26.81079,10.99051 15.3576,22.44371 -5.53598,5.53597 -11.83961,5.77892 -18.29015,0.70492 z"
     id="path166" />
  <path
     style="fill:#000080;stroke-width:1.84551"
     d="m 602.07442,556.17369 c -5.074,-6.45055 -4.83105,-12.75417 0.70492,-18.29015 7.40288,-7.40287 17.72469,-5.51017 22.89603,4.19843 7.30011,13.70513 -13.93272,26.38288 -23.60095,14.09172 z"
     id="path168" />
  <path
     style="fill:#000080;stroke-width:1.84551"
     d="m 478.29101,754.2978 c -54.47448,-34.16438 -145.79563,-93.49671 -145.79563,-94.72497 0,-0.41112 4.93153,-9.43405 10.95896,-20.05098 6.02742,-10.61692 12.59359,-22.99886 14.59149,-27.51542 4.72961,-10.69208 10.97563,-14.82983 20.11263,-13.32385 23.33312,3.8458 25.94415,3.7021 30.40487,-1.67335 11.80258,-14.22287 12.08573,-14.38757 22.82841,-13.27883 6.03613,0.62299 16.63791,4.09136 26.76369,8.75574 l 16.76801,7.7241 24.29134,-0.80921 c 20.54981,-0.68456 26.53762,-1.60162 38.87505,-5.95392 19.58886,-6.91039 26.95154,-6.0221 43.25443,5.2185 21.34669,14.71826 45.5632,16.00153 65.33561,3.46224 11.9651,-7.58804 22.85893,-10.2773 38.13534,-9.4141 19.70301,1.11332 25.06229,5.75831 41.9373,36.34784 7.48085,13.56061 13.60154,25.0118 13.60154,25.44709 0,3.13995 -204.76089,131.73819 -209.61933,131.64955 -0.93064,-0.017 -24.5303,-14.35417 -52.44371,-31.86043 z"
     id="path170" />
  <path
     style="fill:#000080;stroke-width:1.84551"
     d="m 630.08457,845.73388 c -18.52435,-10.81256 -33.66082,-20.12102 -33.6366,-20.68547 0.0242,-0.56444 7.70617,-5.52508 17.071,-11.02365 29.54566,-17.34773 91.438,-56.37607 125.84066,-79.35314 18.23117,-12.17636 33.30515,-21.96817 33.49773,-21.75958 0.19257,0.20859 15.89323,28.61562 34.89035,63.12674 38.8346,70.54891 40.25499,74.41844 30.79063,83.88278 l -5.62464,5.62466 -84.57425,-0.0766 -84.57425,-0.0766 z"
     id="path172" />
  <path
     style="fill:#000080;stroke-width:1.84551"
     d="m 247.7622,861.92153 c -11.29384,-1.82657 -17.52923,-9.10315 -16.21254,-18.91974 0.62328,-4.64694 13.21945,-28.8266 36.32729,-69.73405 l 35.37317,-62.62057 24.31158,16.24036 c 30.99109,20.70234 71.8207,46.64483 109.29768,69.44602 16.18968,9.84989 31.4051,19.15637 33.81206,20.68107 4.27221,2.70628 3.46056,3.29316 -34.14202,24.68682 l -38.51828,21.91464 -71.0523,-0.18868 c -39.07877,-0.10378 -74.71726,-0.78142 -79.19664,-1.50587 z"
     id="path174" />
  <path
     style="fill:#000080;stroke-width:1.84551"
     d="m 531.22738,178.1866 c -13.19936,-4.70748 -19.71711,-13.8896 -19.71711,-27.77718 0,-22.60996 21.54597,-36.43119 41.63357,-26.70695 12.7004,6.14816 19.14634,18.78705 16.57417,32.49788 -1.607,8.56604 -12.54449,20.41416 -21.01778,22.76767 -8.3589,2.32175 -8.83106,2.30063 -17.47285,-0.78142 z"
     id="path176" />
  <path
     style="fill:#000080;stroke-width:1.84551"
     d="m 603.26502,112.38293 c -19.39285,-2.99521 -38.70429,-19.822845 -44.04501,-38.380014 -7.84156,-27.246672 3.46134,-53.714586 28.363,-66.4174736 10.57688,-5.3955001 14.04492,-6.2447633 25.21544,-6.1748337 21.6107,0.1352871 40.30559,11.5266103 50.68841,30.8858923 5.73762,10.698068 5.73345,39.144693 -0.007,49.828887 -11.87645,22.103412 -35.65303,34.051042 -60.21454,30.257542 z"
     id="path178" />
  <path
     style="fill:#ff0000;stroke-width:1.84551"
     d="m 477.28437,216.93182 c -5.74806,-5.74806 -5.74806,-11.02934 0,-16.7774 l 4.5299,-4.5299 h 53.68769 53.68769 l 4.5299,4.5299 c 2.49144,2.49144 4.52989,6.26636 4.52989,8.3887 0,2.12234 -2.03845,5.89726 -4.52989,8.3887 l -4.5299,4.5299 h -53.68769 -53.68769 z"
     id="path180" />
  <path
     style="fill:#000080;stroke-width:1.84551"
     d="m 523.50611,780.83652 c -3.0451,-1.89469 -21.31569,-13.23796 -40.60131,-25.20726 -36.0066,-22.34688 -144.56371,-92.27223 -147.35616,-94.91714 -2.09813,-1.98728 27.81602,-56.82909 32.31005,-59.23422 2.20337,-1.17921 9.97691,-1.42795 20.53977,-0.65723 l 16.99474,1.24001 7.73559,-8.51632 c 6.75794,-7.43999 8.67687,-8.51632 15.18336,-8.51632 7.53986,0 24.61329,5.62712 38.37468,12.64766 7.1097,3.6271 8.99456,3.74608 34.01852,2.14739 17.62439,-1.12596 30.40768,-2.95873 38.19067,-5.47549 17.63046,-5.70108 24.72032,-5.05942 38.94183,3.5244 16.42842,9.91587 26.02746,12.99476 40.48291,12.98492 10.64314,-0.007 14.49404,-1.0809 29.75757,-8.29649 16.09495,-7.60863 18.71256,-8.28884 31.92677,-8.29649 16.32433,-0.009 21.95049,2.16685 30.35867,11.74324 5.0039,5.69912 24.4001,38.3629 27.35867,46.07278 0.8754,2.28126 -5.69166,7.43926 -28.10263,22.07278 -63.2429,41.29523 -175.11833,110.22394 -178.79586,110.15975 -0.97971,-0.0166 -4.27274,-1.58129 -7.31784,-3.47597 z"
     id="path184" />
  <path
     style="fill:#000080;stroke-width:1.84551"
     d="m 531.09745,864.03933 c -0.51222,-0.82879 1.36231,-2.86177 4.16562,-4.51772 4.85432,-2.86752 5.4425,-2.79854 12.35686,1.44929 l 7.25993,4.46013 -11.42555,0.0576 c -6.28405,0.0317 -11.84464,-0.62051 -12.35686,-1.4493 z"
     id="path186" />
</svg>
